<svg width="25" height="22" viewBox="0 0 25 22" fill="none" xmlns="http://www.w3.org/2000/svg">
<path d="M8.9248 16.3457H21.4609C21.8799 16.3457 22.2451 16.002 22.2451 15.54C22.2451 15.0781 21.8799 14.7344 21.4609 14.7344H9.10742C8.49512 14.7344 8.11914 14.3047 8.02246 13.6494L7.85059 12.5215H21.4824C23.0508 12.5215 23.8564 11.5547 24.082 10.0186L24.9414 4.33594C24.9629 4.19629 24.9844 4.02441 24.9844 3.92773C24.9844 3.41211 24.5977 3.05762 24.0068 3.05762H6.46484L6.26074 1.69336C6.15332 0.866211 5.85254 0.447266 4.75684 0.447266H0.986328C0.556641 0.447266 0.191406 0.823242 0.191406 1.25293C0.191406 1.69336 0.556641 2.06934 0.986328 2.06934H4.61719L6.33594 13.8643C6.56152 15.3896 7.36719 16.3457 8.9248 16.3457ZM23.1582 4.67969L22.3955 9.8252C22.3096 10.4912 21.9551 10.9102 21.3213 10.9102H7.61426L6.70117 4.67969H23.1582ZM9.77344 21.5664C10.7402 21.5664 11.5137 20.8037 11.5137 19.8262C11.5137 18.8594 10.7402 18.0859 9.77344 18.0859C8.7959 18.0859 8.02246 18.8594 8.02246 19.8262C8.02246 20.8037 8.7959 21.5664 9.77344 21.5664ZM19.8174 21.5664C20.7949 21.5664 21.5684 20.8037 21.5684 19.8262C21.5684 18.8594 20.7949 18.0859 19.8174 18.0859C18.8506 18.0859 18.0664 18.8594 18.0664 19.8262C18.0664 20.8037 18.8506 21.5664 19.8174 21.5664Z" fill="white"/>
</svg>
